<svg id="Capa_1" data-name="Capa 1" xmlns="http://www.w3.org/2000/svg" viewBox="0 0 1089 732.5"><defs><style>.cls-1{fill:#3d4f59;}.cls-2{fill:#f7941d;}</style></defs><title>gfi-logo_</title><path class="cls-1" d="M942.1,173.5l6.8.9c13.4,1.4,25.3,6.4,36.4,13.8a87.5,87.5,0,0,1,16.8,14.6,69.7,69.7,0,0,1,17.5,37.2,47.6,47.6,0,0,1-8.9,35.9c-3.7,5.1-8.9,8.5-14.6,10.9-12.7,5.4-25.5,6.3-38.4.9a38.8,38.8,0,0,1-8.4-4.9c-5.9-4.4-8.9-10.6-9.5-17.9a44.1,44.1,0,0,1,7.9-30,34.9,34.9,0,0,0,6.1-26c-1.2-8.1-6.9-13.8-15.1-15.3a55.6,55.6,0,0,0-20.5.5A73.5,73.5,0,0,0,887,207.7c-7.2,5.5-12.6,12.5-16.9,20.3-5.8,10.6-9.3,21.9-11.5,33.7a209.8,209.8,0,0,0-3.3,39.1q0,44.9,0,89.8v3.1h151V732.6H933.7V418.4H855.3V732.6H782.7V418.4H703.3l1,1.3c15.8,16.5,25.2,36.2,29.5,58.5a120.4,120.4,0,0,1,2.3,20.7,93.3,93.3,0,0,1-8.8,40.9c-12.1,26.5-31.6,46-57.3,59.5a134.9,134.9,0,0,1-33.3,11.9l-1.2.3a21.1,21.1,0,0,0,.7,7.9c1.8,7.8,5.8,14.5,10.6,20.8,6.9,8.9,15.2,16.5,23.8,23.6,11.7,9.6,24.1,18.3,36.3,27.2,8.7,6.3,17.3,12.7,25,20.1,13.5,13.1,23.8,28.2,29.2,46.4,6.7,22.7,4.7,45-4.9,66.5-11.1,24.9-29.3,43.2-53,56.2-10.3,5.6-21.3,9.4-32.5,12.9a271.8,271.8,0,0,1-47.2,10.4c-7.4.9-14.8,1.4-22.2,2.1l-2.3.4H576.8c-2.4-.3-4.9-.7-7.3-.9a239.5,239.5,0,0,1-46.7-7.8c-21.1-5.7-41-14.2-59.3-26.4-12.4-8.4-23.6-18.1-32.4-30.3-7.6-10.4-13.1-21.8-14.7-34.7a10.4,10.4,0,0,0-.8-2.2V792.2a29.4,29.4,0,0,0,.9-3.7,86.2,86.2,0,0,1,4.2-18.9c5.3-15.3,14.3-28.1,26-39.2,13.5-12.8,29.3-22.2,46.3-29.4,30-12.8,61.5-18.9,94-19.2,11.4-.1,22.7.4,34.1.5h2.1a113.2,113.2,0,0,1-22.5-65.5h-2.5a199.6,199.6,0,0,1-37.7-3,153.2,153.2,0,0,1-48.4-17c-21.1-11.9-37.9-28.2-49.2-49.8-9-17.1-12.9-35.3-10.7-54.7a116.7,116.7,0,0,1,11.8-39.8c16.4-32.5,42.1-54.2,76.4-65.8a155.7,155.7,0,0,1,43-7.8,178.7,178.7,0,0,1,41.1,2.9A214,214,0,0,1,663,392.9a9.9,9.9,0,0,0,3.5.8h114l2.2-.2c0-1.2,0-2.1,0-3.1.2-15,.1-30.1.5-45.1a243.7,243.7,0,0,1,6.3-48.2c3.3-14.2,8-28,15.1-40.8,6-10.8,13.6-20.3,21.7-29.5,13.5-15.3,29-28.2,47.1-37.8a129.3,129.3,0,0,1,46.8-14.7l7.1-.9ZM602.6,705.4c-16.4.2-32.6,1.3-48.6,4.7-11.8,2.5-23.1,6.4-33.5,12.5-14.5,8.5-25.1,20.4-31.2,36.2a91.3,91.3,0,0,0-5.7,26.9,119.5,119.5,0,0,0,3.1,37.6q9.2,36.5,43.8,51.5a115.4,115.4,0,0,0,32.8,8.5c16,1.8,32.1,2.3,48.1.1a117.4,117.4,0,0,0,36.2-10.6c19.2-9.5,32.9-24,40-44.4a103.7,103.7,0,0,0,5.3-31.8,78,78,0,0,0-2.1-20c-3.3-13.8-9.9-25.9-18.8-36.9s-22-22.7-35.2-31.7a5.9,5.9,0,0,0-2.9-.9Zm64-204.5a249.5,249.5,0,0,0-1.4-28.9,134.8,134.8,0,0,0-6.3-29c-7.1-20.7-21.1-34.2-42.3-39.8a97.3,97.3,0,0,0-48-.5c-16.1,3.8-27.9,13.5-35.3,28.2a92.9,92.9,0,0,0-8.8,28.8,271.6,271.6,0,0,0-2.6,46.9,192,192,0,0,0,4,35.5,93.2,93.2,0,0,0,10,27.1,48.2,48.2,0,0,0,27.1,22,81.5,81.5,0,0,0,23.8,4c10.8.4,21.6-.3,32.1-3.1,15.2-4,27-12.5,34.9-26.2a79.5,79.5,0,0,0,9-24.2A214.9,214.9,0,0,0,666.6,500.9Z" transform="translate(-415.6 -173.5)"/><path class="cls-2" d="M1007.7,344.7l1.8-10.5,4.8.8c56.8,10.8,106.8,35.6,150.5,73.2,56.7,48.7,96.7,108.8,120.8,179.5,2.9,8.5,5,17.2,7.4,25.8l.4,1.3c6-5.5,11.7-11,17.7-16.2s12.5-10.2,19-15,13.2-9.1,20-13.3,14-8.1,21.1-11.9A241.6,241.6,0,0,1,1393,548l4.2,9.8-2.3,1.1a317.2,317.2,0,0,0-64.5,38,256.3,256.3,0,0,0-32.5,29.4,4.6,4.6,0,0,0-1.3,4.5,215.6,215.6,0,0,1,3.5,52A124.8,124.8,0,0,1,1295,713a31.8,31.8,0,0,1-5,10c-3.1,4-6.9,6.6-12.1,7a15.4,15.4,0,0,1-9.7-2.7,26.7,26.7,0,0,1-8.1-8.7,45.2,45.2,0,0,1-5.9-17.8c-1.5-12,.9-23.4,5.1-34.5,5.2-13.6,12.9-25.7,21.9-37,1-1.3,2.6-2.5,2.9-4s-.5-3.4-.9-5.1c-9.3-40-25.4-77.2-47-112a385.7,385.7,0,0,0-81-93.9c-33.1-27.6-70-48.3-111.4-60.8a292.7,292.7,0,0,0-33.5-8.1ZM1287,640.3l-.6-.3c-1.6,2.2-3.2,4.4-4.7,6.6-7.2,10.7-13,22-15.9,34.6-1.8,8.1-2.1,16.3.2,24.4a24.9,24.9,0,0,0,5.8,10.9c3.8,3.9,7.3,3.6,10.1-1.1a35.5,35.5,0,0,0,3.3-7.9,112.7,112.7,0,0,0,3.8-22.6,191,191,0,0,0-1-36.8C1287.8,645.4,1287.4,642.9,1287,640.3Z" transform="translate(-415.6 -173.5)"/><path class="cls-2" d="M1504.6,521.5c-.3,18.2-10.9,33.6-27.6,39-26.6,8.6-47.9-8.6-53.1-27.8-6-22,6.7-44.9,28.4-50.7,28-7.4,47.3,12,51.2,29.5A95.7,95.7,0,0,1,1504.6,521.5Z" transform="translate(-415.6 -173.5)"/><path class="cls-1" d="M944.5,755.6h8.8l6.1,18.6,6.2,19,.5-1c3-8.4,5.9-16.9,8.9-25.3a5,5,0,0,0,0-3.9c-.9-2.3-1.7-4.6-2.6-7.3,2.7-.5,5.3-.1,8-.2L993.5,793l11.8-37.5h8.2l-16.8,49.9h-6.5l-10.8-30-11,30h-6.4Z" transform="translate(-415.6 -173.5)"/><path class="cls-1" d="M996.5,874.5h-6.3l-10.8-30-10.9,30h-6.4l-17.6-49.9h8.8l12.3,37.7.7-1.7c2.9-8.2,5.8-16.4,8.7-24.6a5.1,5.1,0,0,0,0-3.9c-1-2.4-1.7-4.8-2.7-7.4h8.1l13,37.5,11.8-37.5h7.8C1013.1,826.2,998.1,871.4,996.5,874.5Z" transform="translate(-415.6 -173.5)"/><path class="cls-1" d="M1329.2,755.6h7.6c.5,1.8.6,46.2.1,49.6h-6.4c-1.1,0-1.5-.9-2-1.5l-15.5-20.2L1301.4,768v37.1h-7.5c-.5-1.7-.7-45.2-.2-49.6,2.4,0,4.9-.1,7.3.1.6,0,1.3.9,1.7,1.5l15.2,19.8,10.6,14.2.6.5v-36Z" transform="translate(-415.6 -173.5)"/><path class="cls-1" d="M863.9,837.1v37h-7.6V824.4c2.4,0,4.8-.1,7.1.1.6,0,1.3.8,1.8,1.4L877,841.3l14.1,18.8.6.3V824.6h7.9v49.7c-2.3,0-4.4.1-6.5-.1s-1.5-.9-2-1.5l-15.8-20.6-10.6-14.2Z" transform="translate(-415.6 -173.5)"/><path class="cls-1" d="M899.6,755.6v49.6c-2.3,0-4.4.1-6.6-.1s-1.5-.9-1.9-1.5L875,782.7l-10.3-13.8-.8-.6V805h-7.7V755.4c2.4,0,4.7-.1,7,.1a3.6,3.6,0,0,1,2,1.5l13,16.9,13.4,17.6v-36Z" transform="translate(-415.6 -173.5)"/><path class="cls-1" d="M1061.7,874.2V824.8l.4-.3c6.1.1,12.3,0,18.4.4a26.5,26.5,0,0,1,7.9,1.9c8.7,3.4,13.2,10,14,19.2a28,28,0,0,1-1.1,11.6c-2.9,8.7-9.1,13.7-17.8,15.7a41.5,41.5,0,0,1-7.8,1c-4.2.2-8.3,0-12.5,0Zm7.9-6.8a43.6,43.6,0,0,0,11.7-.7c6.7-1.6,10.8-5.7,12.3-12.3a25.6,25.6,0,0,0,.6-6.7c-.3-7.8-4.7-13.3-11.8-15.4-4.1-1.2-8.4-.8-12.7-.8Z" transform="translate(-415.6 -173.5)"/><path class="cls-1" d="M1120.8,805.2V783.9c-1.8-.6-20.3-.8-25-.3-.1,2.3,0,4.7-.1,7s0,4.6,0,7v7.5c-2.6.2-5.2.1-7.8.1V755.6h7.8V776c1.9.5,20.7.7,25,.2V755.6h8v49.5C1126.2,805.3,1123.7,805.2,1120.8,805.2Z" transform="translate(-415.6 -173.5)"/><path class="cls-1" d="M1382.4,797.5v-17a44.4,44.4,0,0,1,7.9,0v21a36,36,0,0,1-12,3.9,32.6,32.6,0,0,1-13.8-.5,23.2,23.2,0,0,1-17.2-20.8,31,31,0,0,1,.7-10.5,24.8,24.8,0,0,1,21.5-18.5c6.7-.8,13.7.1,18.9,2.5v7.5l-2.8-1.2a26.6,26.6,0,0,0-16.6-1.7c-7.2,1.7-11.5,6.3-12.9,13.5a21.9,21.9,0,0,0,1.1,12.5,16.3,16.3,0,0,0,13,10.5A20.4,20.4,0,0,0,1382.4,797.5Z" transform="translate(-415.6 -173.5)"/><path class="cls-1" d="M1181,805.1h-8.6l-4.9-12.4h-18.4l-4.6,12.3h-7.9l19.2-49.7h5.6Zm-16.2-19.4-6.4-18.6-6.7,18.6Z" transform="translate(-415.6 -173.5)"/><path class="cls-1" d="M1152.8,874.2h-7.9l19.2-49.7h5.7l19.6,49.8h-8.6l-5-12.6h-16.3c-2,0-2,0-2.7,1.9l-3.1,8.3Zm14.1-38-6.8,18.6h13.1Z" transform="translate(-415.6 -173.5)"/><path class="cls-1" d="M1402,755.5h26.4a39.9,39.9,0,0,1-2.2,6.8h-16v13.9H1426V783h-15.4c-.6,1.9-.7,12.6-.2,15.3h18.2v6.4c-1.7.5-21.2.7-26.6.2C1402,788.6,1402.1,772.2,1402,755.5Z" transform="translate(-415.6 -173.5)"/><path class="cls-1" d="M1139.1,824.6l-2.3,6.7H1121c-.5,1.9-.7,10.8-.2,14h15.6v6.9h-15.7v15.3h18.4v6.7h-26.6c-.1-16.5,0-32.9,0-49.3C1114.4,824.3,1133.1,824.1,1139.1,824.6Z" transform="translate(-415.6 -173.5)"/><path class="cls-1" d="M1264.5,776.3h15.8v6.7h-15.8v15.3h18.4V805h-26.3V755.6H1283l-2.4,6.7h-16.1Z" transform="translate(-415.6 -173.5)"/><path class="cls-1" d="M920.3,776.3h15.9v6.8H920.3v15.2h18.4V805H912.6c-.5-1.7-.6-46.4-.1-49.4h26.3l-2.4,6.8H920.3Z" transform="translate(-415.6 -173.5)"/><path class="cls-1" d="M912.4,874.1V824.5h26.1a22.3,22.3,0,0,1-2,6c-.2.4-1.2.7-1.8.7H920.3v13.9a69,69,0,0,0,7.8.2h8.1v6.8H920.3v15.2h18.4v6.7Z" transform="translate(-415.6 -173.5)"/><path class="cls-1" d="M1076.4,795.8l2.2,5.7a26.9,26.9,0,0,1-9.3,3.8,28,28,0,0,1-13.8-.3,21.6,21.6,0,0,1-15.1-13.6,27.5,27.5,0,0,1,0-20.6c3.6-9,10.5-14,20-15.5a30.1,30.1,0,0,1,13.3.9l3.7,1.4v7.6l-2.3-1.1a22.1,22.1,0,0,0-13.8-2c-6.6,1.1-10.9,5-13.1,11.3a21.7,21.7,0,0,0,.2,14.6c3.1,8.6,10.8,11.8,18.4,10.8a52.4,52.4,0,0,0,7.6-2.1Z" transform="translate(-415.6 -173.5)"/><path class="cls-1" d="M1223.5,826.8V834l-3.7-1.6c-3.3-1.3-6.7-2.1-10.3-1.3s-4.1,1.5-4.8,3.8a5.8,5.8,0,0,0,1.9,6.3,34.6,34.6,0,0,0,4.7,3.3c2,1.2,4.1,2.2,6,3.5a30.2,30.2,0,0,1,5.3,4.1,12.9,12.9,0,0,1-3,20.3c-4.8,2.8-10,3-15.3,2.2a22,22,0,0,1-9.7-4l3.2-5.9,2.2,1.2c3.6,1.9,7.4,2.9,11.6,2.1s5.3-1.7,6-4.7-.7-5.4-3-7.1-4.3-2.7-6.5-4.1a68.3,68.3,0,0,1-7.3-5c-3.8-3.3-5.1-7.6-4.2-12.6s4.3-8.3,9.2-9.8a24.1,24.1,0,0,1,17.1,1.4Z" transform="translate(-415.6 -173.5)"/><path class="cls-1" d="M1465.5,757.6v7.4l-2.8-1.3c-3.6-1.6-7.3-2.5-11.2-1.7s-5.8,3.5-4.9,6.9a8.5,8.5,0,0,0,2.3,3.6,24.7,24.7,0,0,0,4.3,3c1.9,1.2,4,2.1,5.8,3.3a32,32,0,0,1,5.3,4.1,13,13,0,0,1-3,20.6,19.5,19.5,0,0,1-8.7,2.4,25.9,25.9,0,0,1-16.3-4.3l3.3-5.8,2.9,1.5c3.6,1.7,7.4,2.7,11.4,1.7s4.9-1.8,5.5-4.6-.6-5.2-2.8-6.9-4-2.6-6-3.9-5.1-3-7.4-4.8a12.5,12.5,0,0,1-4.9-10.9c.2-4.7,2.3-8.4,6.4-10.5C1451.7,753.6,1458.7,754.6,1465.5,757.6Z" transform="translate(-415.6 -173.5)"/><path class="cls-1" d="M1230.5,755.6v42.7h18.1v6.4c-1.6.5-22.3.7-25.9.2V755.6Z" transform="translate(-415.6 -173.5)"/><path class="cls-1" d="M1189,755.5h7.6c0,3.7,0,7.2,0,10.8s0,7,0,10.6v10.8c0,3.5,0,7,0,10.6h18V805h-25.5C1188.7,803.4,1188.6,759.3,1189,755.5Z" transform="translate(-415.6 -173.5)"/><path class="cls-1" d="M1049,824.6v49.6h-7.5c-.5-1.6-.7-46.4-.1-49.6Z" transform="translate(-415.6 -173.5)"/><path class="cls-1" d="M1484.4,796.4c1.8,6-.8,14.6-5.1,18.4l-3.2-1.5-.9-.5a60.1,60.1,0,0,0,2-7.4,57.6,57.6,0,0,0,.1-7.6Z" transform="translate(-415.6 -173.5)"/></svg>